<svg id="Groupe_522" data-name="Groupe 522" xmlns="http://www.w3.org/2000/svg" width="30" height="30" viewBox="0 0 13.949 13.949">
  <g id="Icon_awesome-play" data-name="Icon awesome-play" transform="translate(5.537 4.745)">
    <path id="Tracé_129" data-name="Tracé 129" d="M685.041,383.1l-3.231-1.91a.437.437,0,0,0-.665.379v3.821a.44.44,0,0,0,.439.441.445.445,0,0,0,.225-.062l3.231-1.911a.441.441,0,0,0,.155-.6A.45.45,0,0,0,685.041,383.1Z" transform="translate(-681.145 -381.123)" fill="white"/>
  </g>
  <g id="Ellipse_19" data-name="Ellipse 19" transform="translate(0 0)">
    <path id="Tracé_130" data-name="Tracé 130" d="M680.974,388.949a6.974,6.974,0,1,1,6.974-6.974A6.982,6.982,0,0,1,680.974,388.949Zm0-13.174a6.2,6.2,0,1,0,6.2,6.2A6.207,6.207,0,0,0,680.974,375.775Z" transform="translate(-674 -375)" fill="white"/>
  </g>
</svg>
