<svg xmlns="http://www.w3.org/2000/svg" width="30" height="30" viewBox="0 0 12.738 14.558">
  <path id="Icon_metro-file-video" data-name="Icon metro-file-video" d="M16.637,5.185A12.887,12.887,0,0,0,15.4,3.767,12.894,12.894,0,0,0,13.98,2.528a2.268,2.268,0,0,0-1.293-.6H5.636A1.139,1.139,0,0,0,4.5,3.065V15.349a1.139,1.139,0,0,0,1.137,1.137H16.1a1.139,1.139,0,0,0,1.137-1.137V6.477a2.267,2.267,0,0,0-.6-1.293Zm-1.883-.774a12.409,12.409,0,0,1,1.032,1.157H13.6V3.379a12.4,12.4,0,0,1,1.157,1.032Zm1.573,10.938a.231.231,0,0,1-.227.227H5.636a.231.231,0,0,1-.227-.227V3.065a.231.231,0,0,1,.227-.227h7.052V6.022a.455.455,0,0,0,.455.455h3.185Zm-9.1-6.142h4.549v4.549H7.228Zm4.549,1.82,2.73-1.82v4.549l-2.73-1.82Z" transform="translate(-4.499 -1.928)" fill="white"/>
</svg>
